<?xml version="1.0" encoding="UTF-8" standalone="no"?>
<svg
   xmlns:dc="http://purl.org/dc/elements/1.1/"
   xmlns:cc="http://creativecommons.org/ns#"
   xmlns:rdf="http://www.w3.org/1999/02/22-rdf-syntax-ns#"
   xmlns:svg="http://www.w3.org/2000/svg"
   xmlns="http://www.w3.org/2000/svg"
   xmlns:xlink="http://www.w3.org/1999/xlink"
   xmlns:sodipodi="http://sodipodi.sourceforge.net/DTD/sodipodi-0.dtd"
   xmlns:inkscape="http://www.inkscape.org/namespaces/inkscape"
   width="346.10001"
   height="346.10001"
   viewBox="0 0 91.572291 91.572296"
   version="1.1"
   id="svg8"
   inkscape:version="1.0 (4035a4fb49, 2020-05-01)"
   sodipodi:docname="aether_logo3.svg"
   inkscape:export-filename="aether_logo_WB_grad.png"
   inkscape:export-xdpi="142.01675"
   inkscape:export-ydpi="142.01675">
  <style
     id="style107">
.measure-arrow
{
}
.measure-label
{

}
.measure-line
{
}</style>
  <defs
     id="defs2">
    <linearGradient
       id="linearGradient992"
       inkscape:collect="always">
      <stop
         id="stop988"
         offset="0"
         style="stop-color:#000000;stop-opacity:1;" />
      <stop
         id="stop990"
         offset="1"
         style="stop-color:#000000;stop-opacity:0;" />
    </linearGradient>
    <linearGradient
       id="linearGradient984"
       inkscape:collect="always">
      <stop
         id="stop980"
         offset="0"
         style="stop-color:#000000;stop-opacity:1;" />
      <stop
         id="stop982"
         offset="1"
         style="stop-color:#000000;stop-opacity:0;" />
    </linearGradient>
    <inkscape:path-effect
       end_linecap_type="zerowidth"
       scale_width="1"
       miter_limit="4"
       linejoin_type="extrp_arc"
       start_linecap_type="zerowidth"
       interpolator_beta="0.2"
       interpolator_type="CubicBezierJohan"
       sort_points="true"
       offset_points="0,0.1322915"
       lpeversion="1"
       is_visible="true"
       id="path-effect153"
       effect="powerstroke" />
    <inkscape:path-effect
       end_linecap_type="zerowidth"
       scale_width="1"
       miter_limit="4"
       linejoin_type="extrp_arc"
       start_linecap_type="zerowidth"
       interpolator_beta="0.2"
       interpolator_type="CubicBezierJohan"
       sort_points="true"
       offset_points="0,0.1322915"
       lpeversion="1"
       is_visible="true"
       id="path-effect103"
       effect="powerstroke" />
    <inkscape:path-effect
       end_linecap_type="zerowidth"
       scale_width="1"
       miter_limit="4"
       linejoin_type="extrp_arc"
       start_linecap_type="zerowidth"
       interpolator_beta="0.2"
       interpolator_type="CubicBezierJohan"
       sort_points="true"
       offset_points="0,0.1322915"
       lpeversion="1"
       is_visible="true"
       id="path-effect91"
       effect="powerstroke" />
    <inkscape:path-effect
       effect="powerstroke"
       id="path-effect999"
       is_visible="true"
       lpeversion="1"
       offset_points="0,0.1322915"
       sort_points="true"
       interpolator_type="CubicBezierJohan"
       interpolator_beta="0.2"
       start_linecap_type="zerowidth"
       linejoin_type="extrp_arc"
       miter_limit="4"
       scale_width="1"
       end_linecap_type="zerowidth" />
    <inkscape:path-effect
       effect="powerstroke"
       id="path-effect959"
       is_visible="true"
       lpeversion="1"
       offset_points="0,0.1322915"
       sort_points="true"
       interpolator_type="CubicBezierJohan"
       interpolator_beta="0.2"
       start_linecap_type="zerowidth"
       linejoin_type="extrp_arc"
       miter_limit="4"
       scale_width="1"
       end_linecap_type="zerowidth" />
    <inkscape:path-effect
       effect="powerstroke"
       id="path-effect953"
       is_visible="true"
       lpeversion="1"
       offset_points="0,0.1322915"
       sort_points="true"
       interpolator_type="CubicBezierJohan"
       interpolator_beta="0.2"
       start_linecap_type="zerowidth"
       linejoin_type="extrp_arc"
       miter_limit="4"
       scale_width="1"
       end_linecap_type="zerowidth" />
    <inkscape:path-effect
       effect="powerstroke"
       id="path-effect949"
       is_visible="true"
       lpeversion="1"
       offset_points="0,0.1322915"
       sort_points="true"
       interpolator_type="CubicBezierJohan"
       interpolator_beta="0.2"
       start_linecap_type="zerowidth"
       linejoin_type="extrp_arc"
       miter_limit="4"
       scale_width="1"
       end_linecap_type="zerowidth" />
    <inkscape:path-effect
       effect="powerstroke"
       id="path-effect945"
       is_visible="true"
       lpeversion="1"
       offset_points="0,0.1322915"
       sort_points="true"
       interpolator_type="CubicBezierJohan"
       interpolator_beta="0.2"
       start_linecap_type="zerowidth"
       linejoin_type="extrp_arc"
       miter_limit="4"
       scale_width="1"
       end_linecap_type="zerowidth" />
    <inkscape:path-effect
       effect="powerstroke"
       id="path-effect941"
       is_visible="true"
       lpeversion="1"
       offset_points="0,0.1322915"
       sort_points="true"
       interpolator_type="CubicBezierJohan"
       interpolator_beta="0.2"
       start_linecap_type="zerowidth"
       linejoin_type="extrp_arc"
       miter_limit="4"
       scale_width="1"
       end_linecap_type="zerowidth" />
    <inkscape:path-effect
       effect="powerstroke"
       id="path-effect937"
       is_visible="true"
       lpeversion="1"
       offset_points="0,0.1322915"
       sort_points="true"
       interpolator_type="CubicBezierJohan"
       interpolator_beta="0.2"
       start_linecap_type="zerowidth"
       linejoin_type="extrp_arc"
       miter_limit="4"
       scale_width="1"
       end_linecap_type="zerowidth" />
    <inkscape:path-effect
       effect="powerstroke"
       id="path-effect933"
       is_visible="true"
       lpeversion="1"
       offset_points="0,0.1322915"
       sort_points="true"
       interpolator_type="CubicBezierJohan"
       interpolator_beta="0.2"
       start_linecap_type="zerowidth"
       linejoin_type="extrp_arc"
       miter_limit="4"
       scale_width="1"
       end_linecap_type="zerowidth" />
    <inkscape:path-effect
       effect="powerstroke"
       id="path-effect106"
       is_visible="true"
       lpeversion="1"
       offset_points="0,0.1322915"
       sort_points="true"
       interpolator_type="CubicBezierJohan"
       interpolator_beta="0.2"
       start_linecap_type="zerowidth"
       linejoin_type="extrp_arc"
       miter_limit="4"
       scale_width="1"
       end_linecap_type="zerowidth" />
    <inkscape:path-effect
       effect="powerstroke"
       id="path-effect92"
       is_visible="true"
       lpeversion="1"
       offset_points="0,0.1322915"
       sort_points="true"
       interpolator_type="CubicBezierJohan"
       interpolator_beta="0.2"
       start_linecap_type="zerowidth"
       linejoin_type="extrp_arc"
       miter_limit="4"
       scale_width="1"
       end_linecap_type="zerowidth" />
    <inkscape:path-effect
       effect="powerstroke"
       id="path-effect86"
       is_visible="true"
       lpeversion="1"
       offset_points="0,0.1322915"
       sort_points="true"
       interpolator_type="CubicBezierJohan"
       interpolator_beta="0.2"
       start_linecap_type="zerowidth"
       linejoin_type="extrp_arc"
       miter_limit="4"
       scale_width="1"
       end_linecap_type="zerowidth" />
    <inkscape:path-effect
       effect="powerstroke"
       id="path-effect74"
       is_visible="true"
       lpeversion="1"
       offset_points="0,0.1322915"
       sort_points="true"
       interpolator_type="CubicBezierJohan"
       interpolator_beta="0.2"
       start_linecap_type="zerowidth"
       linejoin_type="extrp_arc"
       miter_limit="4"
       scale_width="1"
       end_linecap_type="zerowidth" />
    <inkscape:path-effect
       effect="powerstroke"
       id="path-effect70"
       is_visible="true"
       lpeversion="1"
       offset_points="0,0.1322915"
       sort_points="true"
       interpolator_type="CubicBezierJohan"
       interpolator_beta="0.2"
       start_linecap_type="zerowidth"
       linejoin_type="extrp_arc"
       miter_limit="4"
       scale_width="1"
       end_linecap_type="zerowidth" />
    <inkscape:path-effect
       miter_limit="100"
       jointype="extrapolated"
       smoothing="0.5"
       end_offset="1.5"
       attach_start="1e-07"
       stroke_width="5"
       lpeversion="1"
       is_visible="true"
       id="path-effect61"
       effect="taper_stroke" />
    <inkscape:path-effect
       miter_limit="100"
       jointype="extrapolated"
       smoothing="0.5"
       end_offset="0.2"
       attach_start="0.2"
       stroke_width="0.79"
       lpeversion="1"
       is_visible="true"
       id="path-effect59"
       effect="taper_stroke" />
    <inkscape:path-effect
       effect="taper_stroke"
       id="path-effect65"
       is_visible="true"
       lpeversion="1"
       stroke_width="6"
       attach_start="1e-07"
       end_offset="0.9"
       smoothing="0.3"
       jointype="extrapolated"
       miter_limit="100" />
    <linearGradient
       gradientUnits="userSpaceOnUse"
       y2="196.86763"
       x2="16.370745"
       y1="196.86763"
       x1="226.31883"
       id="linearGradient986"
       xlink:href="#linearGradient984"
       inkscape:collect="always" />
    <linearGradient
       gradientUnits="userSpaceOnUse"
       y2="206.31645"
       x2="322.47269"
       y1="206.31645"
       x1="122.85547"
       id="linearGradient994"
       xlink:href="#linearGradient992"
       inkscape:collect="always" />
  </defs>
  <sodipodi:namedview
     id="base"
     pagecolor="#ffffff"
     bordercolor="#666666"
     borderopacity="1.0"
     inkscape:pageopacity="1"
     inkscape:pageshadow="2"
     inkscape:zoom="1.4142136"
     inkscape:cx="96.785796"
     inkscape:cy="93.809964"
     inkscape:document-units="mm"
     inkscape:current-layer="layer4"
     inkscape:document-rotation="0"
     showgrid="false"
     inkscape:snap-midpoints="true"
     inkscape:snap-text-baseline="true"
     inkscape:window-width="1920"
     inkscape:window-height="1013"
     inkscape:window-x="-9"
     inkscape:window-y="-9"
     inkscape:window-maximized="1"
     units="px"
     fit-margin-left="0"
     fit-margin-top="0"
     fit-margin-bottom="0"
     fit-margin-right="0"
     inkscape:snap-global="true"
     inkscape:snap-object-midpoints="true">
    <sodipodi:guide
       position="46.636095,95.741058"
       orientation="109.60159,0"
       id="guide14" />
    <sodipodi:guide
       position="46.621345,32.216989"
       orientation="0,-23.430312"
       id="guide1005" />
    <sodipodi:guide
       position="17.267349,12.398611"
       orientation="0,-10.401789"
       id="guide1009" />
    <sodipodi:guide
       position="46.636095,77.11198"
       orientation="0,-17.499969"
       id="guide63" />
    <sodipodi:guide
       position="46.636095,39.4844"
       orientation="0,25.288139"
       id="guide73" />
    <sodipodi:guide
       position="46.636085,80.11198"
       orientation="0,1.1016189"
       id="guide88" />
    <sodipodi:guide
       position="46.636095,74.11198"
       orientation="0,0.75394016"
       id="guide102" />
    <sodipodi:guide
       position="46.636095,41.9844"
       orientation="0,1.1439118"
       id="guide955" />
    <sodipodi:guide
       position="46.636095,36.9844"
       orientation="0,1.2578268"
       id="guide961" />
    <sodipodi:guide
       id="guide149"
       orientation="11.41697,0"
       position="85.320894,12.414339" />
    <sodipodi:guide
       id="guide155"
       orientation="15.659603,0"
       position="7.951452,12.414339" />
  </sodipodi:namedview>
  <metadata
     id="metadata5">
    <rdf:RDF>
      <cc:Work
         rdf:about="">
        <dc:format>image/svg+xml</dc:format>
        <dc:type
           rdf:resource="http://purl.org/dc/dcmitype/StillImage" />
        <dc:title />
      </cc:Work>
    </rdf:RDF>
  </metadata>
  <g
     inkscape:groupmode="layer"
     id="layer1"
     inkscape:label="Base"
     style="display:none"
     sodipodi:insensitive="true"
     transform="translate(-0.32744214,3.0563645)">
    <path
       transform="translate(-67.427824,-90.078671)"
       style="display:inline;fill:#000000;fill-rule:nonzero;stroke:none;stroke-width:0.264583px;stroke-linecap:butt;stroke-linejoin:miter;stroke-opacity:1"
       d="m 114.39135,98.48262 c -4.09512,3e-6 -6.70774,2.45404 -8.61256,5.7262 -6.613413,11.36082 -6.490185,39.05112 -13.532366,51.07137 -1.93456,3.30209 -4.242974,4.93687 -6.959226,4.93687 -1.033278,0 -1.934358,-0.0889 -2.715975,-0.24005 -1.089832,-0.24054 -2.770492,-0.50855 -3.985174,-1.31105 -0.895216,-0.54032 -1.730524,-1.42764 -2.246421,-2.53485 0,0 0,0 0,0 -0.847927,-1.78434 -0.749654,-3.8549 -0.286687,-5.4124 0.455799,-1.53339 1.154542,-2.4034 1.154542,-2.4034 0,0 -1.002217,0.46781 -2.154949,1.85097 -1.14973,1.37956 -2.359696,3.71581 -2.155623,6.71602 10e-7,0 0,0 0,0 0.148861,1.94284 0.92473,3.86471 2.28245,5.43062 1.97178,2.1943 4.428941,3.23388 6.252397,3.5549 1.193604,0.23088 2.479473,0.34924 3.85544,0.34924 19.862402,0 18.447232,-42.52276 24.749262,-57.12532 1.48358,-3.43762 2.93182,-4.60912 4.3549,-4.60912 z"
       id="path59"
       sodipodi:nodetypes="csc"
       inkscape:original-d="m 114.39136,101.48262 c -15.868656,0 -8.15554,61.73444 -29.104162,61.73444 -12.046227,0 -12.977583,-10.36076 -8.079715,-14.90175"
       inkscape:path-effect="#path-effect65" />
    <path
       transform="translate(-67.427824,-90.078671)"
       inkscape:original-d="m 114.39136,139.1102 c -11.13347,0 -17.318768,3.31155 -22.662751,1.61116 -6.258739,-1.99145 -12.139604,-7.83323 -11.141976,-16.27821"
       inkscape:path-effect="#path-effect61"
       style="display:inline;fill:#000000;fill-rule:nonzero;stroke:none;stroke-width:0.264583px;stroke-linecap:butt;stroke-linejoin:miter;stroke-opacity:1"
       d="m 114.39136,136.6102 c -5.81461,0 -10.35638,0.87024 -13.92296,1.47885 -3.184191,0.45819 -5.83002,1.15551 -8.063328,0.50632 -3.175251,-0.80293 -5.892306,-2.42926 -7.842151,-4.45991 -2.110181,-2.16212 -3.111273,-4.7608 -3.556302,-6.62394 -0.451138,-1.88871 -0.419986,-3.06837 -0.419986,-3.06837 0,0 -0.411091,1.09987 -0.489459,3.15416 -0.07822,2.05053 0.247272,5.14318 2.212872,8.27189 1.809827,2.85379 4.778016,5.50929 8.7421,6.97815 3.58619,1.2026 7.159856,0.78382 10.257304,0.17045 3.64544,-0.62206 7.76304,-1.4076 13.08191,-1.4076 z"
       id="path69"
       sodipodi:nodetypes="csc" />
  </g>
  <g
     inkscape:groupmode="layer"
     id="layer2"
     inkscape:label="Base_contour"
     style="display:none"
     transform="translate(-67.755266,-87.022306)"
     sodipodi:insensitive="true">
    <path
       style="fill:none;fill-rule:nonzero;stroke:#ff0000;stroke-width:0.0264583;stroke-linecap:butt;stroke-linejoin:miter;stroke-miterlimit:4;stroke-dasharray:none;stroke-opacity:1"
       d="m 114.39136,104.48262 c -0.34267,0 -0.73924,0.0912 -1.07379,0.24188 -0.42907,0.19319 -0.81709,0.48814 -1.14513,0.8255 -0.62155,0.63921 -1.06882,1.43382 -1.50274,2.21268 -0.40752,0.73149 -0.73131,1.50931 -1.02429,2.29373 -0.57024,1.52681 -1.01917,3.09891 -1.4211,4.67839 -0.71522,2.8106 -1.21897,5.67143 -1.75806,8.52106 -0.4566,2.41361 -0.82434,4.84322 -1.25019,7.26244 -0.3165,1.79803 -0.62271,3.5981 -0.96982,5.39047 -0.45812,2.36555 -0.92098,4.7313 -1.46846,7.07778 -0.39137,1.67736 -0.81054,3.34955 -1.29776,5.00162 -0.47041,1.59507 -0.97892,3.18101 -1.567951,4.73619 -0.441075,1.16454 -0.917049,2.31867 -1.469976,3.43445 -0.558809,1.12765 -1.179503,2.22709 -1.862046,3.28445 -0.374647,0.58038 -0.783124,1.14032 -1.222096,1.67371 -0.436978,0.53097 -0.911766,1.03105 -1.400928,1.51437 -0.323363,0.3195 -0.649257,0.6402 -1.012133,0.914 -0.785001,0.59231 -1.610874,1.14741 -2.502215,1.56282 -0.875907,0.40822 -1.809237,0.70854 -2.757383,0.89528 -0.911252,0.17948 -1.849702,0.20345 -2.778446,0.20876 -0.705216,0.004 -1.41197,-0.0442 -2.11141,-0.13437 -0.867908,-0.11187 -1.74051,-0.2448 -2.576608,-0.50311 -0.695072,-0.21474 -1.363889,-0.51837 -2.004659,-0.86283 -0.566348,-0.30445 -1.106404,-0.66183 -1.613465,-1.05721 -0.453963,-0.35399 -0.882098,-0.74494 -1.270067,-1.17022 -0.373482,-0.40941 -0.71217,-0.85323 -1.009823,-1.32067 -0.26163,-0.41087 -0.488696,-0.84585 -0.676396,-1.29534 -0.247082,-0.59169 -0.466539,-1.20212 -0.58667,-1.83197 -0.153002,-0.8022 -0.208635,-1.62904 -0.16405,-2.44448 0.03709,-0.67834 0.172681,-1.35271 0.357355,-2.00648 0.166121,-0.58809 0.37809,-1.16967 0.670384,-1.70634 0.441582,-0.81076 0.977878,-1.58221 1.616247,-2.24915 0.487985,-0.50983 1.286137,-1.14053 1.663598,-1.30955 -0.05625,0.0736 -0.319162,0.46409 -0.449629,0.71292 -0.256552,0.4893 -0.474736,1.00069 -0.650261,1.52454 -0.109262,0.32609 -0.196904,0.66131 -0.248703,1.00129 -0.107722,0.70704 -0.198909,1.43035 -0.126375,2.14186 0.09179,0.90036 0.271497,1.82711 0.703554,2.62235 0.493387,0.90812 1.221386,1.72123 2.075141,2.30366 1.010653,0.68946 2.243319,1.01648 3.435249,1.2923 1.00121,0.23169 2.041455,0.28563 3.0691,0.29245 0.536456,0.004 1.077253,-0.0299 1.604029,-0.1314 0.354087,-0.0682 0.699625,-0.18317 1.033807,-0.31865 0.368089,-0.14923 0.72677,-0.32747 1.061641,-0.54106 0.487384,-0.31086 0.952338,-0.66478 1.365564,-1.06904 0.589235,-0.57645 1.092512,-1.23906 1.566744,-1.9133 0.414413,-0.58918 0.781,-1.21326 1.110709,-1.8537 0.635995,-1.23539 1.190106,-2.51565 1.665548,-3.82127 0.800069,-2.19708 1.413777,-4.46043 1.98848,-6.72692 0.521421,-2.05636 0.912385,-4.14398 1.322014,-6.2255 0.443168,-2.25194 0.834296,-4.51389 1.228456,-6.77493 0.213564,-1.22507 0.402775,-2.45431 0.615753,-3.67948 0.417604,-2.40231 0.831437,-4.80564 1.298217,-7.19888 0.26545,-1.36099 0.53566,-2.72171 0.85426,-4.07125 0.39891,-1.68974 0.80265,-3.38136 1.32313,-5.03769 0.49344,-1.57029 1.01647,-3.13903 1.7029,-4.63506 0.50696,-1.10488 1.09718,-2.17666 1.77481,-3.18591 0.377,-0.56151 0.80998,-1.0862 1.2668,-1.58494 0.29849,-0.32588 0.61897,-0.63316 0.95914,-0.91527 0.37411,-0.31026 0.76562,-0.603741 1.18438,-0.85044 0.45119,-0.2658 0.92887,-0.490287 1.41999,-0.672009 0.45633,-0.168853 0.92898,-0.299811 1.40807,-0.384812 0.53609,-0.09511 0.78849,-0.137719 1.62756,-0.137719 z"
       id="path931"
       sodipodi:nodetypes="caaaaaaaaaaaaaaaaaaaaaaaaaaaaaaacaaaaaaaaaaaaaaaaaaaaaaaaaaaaacc" />
    <path
       style="fill:none;fill-rule:nonzero;stroke:#ff0000;stroke-width:0.0264583;stroke-linecap:butt;stroke-linejoin:miter;stroke-miterlimit:4;stroke-dasharray:none;stroke-opacity:1"
       d="m 114.39136,136.6102 v 5 c -0.8266,0 -2.06363,0.0223 -3.09306,0.0863 -1.45748,0.0906 -2.91113,0.24372 -4.36059,0.42134 -0.89173,0.10928 -1.77892,0.25352 -2.66592,0.39623 -0.45847,0.0738 -0.91362,0.16767 -1.37268,0.23773 -2.1586,0.32943 -4.31161,0.79576 -6.494308,0.85831 -1.112158,0.0319 -2.230591,-0.0679 -3.328683,-0.24712 -0.661222,-0.10789 -1.310918,-0.28788 -1.94772,-0.49606 -0.42095,-0.13761 -0.83199,-0.3071 -1.23259,-0.49593 -0.813211,-0.38331 -1.614608,-0.80019 -2.368945,-1.28929 -0.781016,-0.50639 -1.522753,-1.07735 -2.219548,-1.69452 -0.564707,-0.50017 -1.095462,-1.04201 -1.580463,-1.6198 -0.623356,-0.74262 -1.208684,-1.52454 -1.698363,-2.36136 -0.425658,-0.72741 -0.778529,-1.5004 -1.066336,-2.29254 -0.289006,-0.79544 -0.52241,-1.61694 -0.656718,-2.45253 -0.180349,-1.12203 -0.235854,-2.26806 -0.194596,-3.40374 0.02423,-0.66684 0.131152,-1.3301 0.258981,-1.98502 0.05472,-0.28036 0.156026,-0.64689 0.216812,-0.82908 -0.03475,0.53649 0.04569,0.88884 0.101676,1.32989 0.06687,0.52682 0.147493,1.05403 0.279253,1.56847 0.258756,1.01027 0.569953,2.01443 0.999817,2.9646 0.373972,0.82663 0.834642,1.61842 1.362897,2.35606 0.487783,0.68113 1.046774,1.31527 1.654448,1.89198 0.726869,0.68984 1.526646,1.30661 2.363393,1.85803 0.68363,0.45052 1.40864,0.84256 2.156552,1.17564 0.910166,0.40534 1.857054,0.73429 2.819072,0.99357 0.382226,0.10302 0.773555,0.17561 1.166742,0.22158 0.412203,0.0482 0.828965,0.0693 1.243765,0.0561 0.92368,-0.0294 1.840323,-0.17653 2.756073,-0.30083 2.166741,-0.2941 4.310629,-0.74037 6.474889,-1.05222 1.86615,-0.26889 3.73432,-0.53565 5.61205,-0.70581 0.91059,-0.0825 1.82517,-0.11489 2.73872,-0.15252 0.42872,-0.0177 0.85776,-0.0278 1.2868,-0.0344 0.26283,-0.004 0.53881,-0.003 0.78858,-0.003 z"
       id="path947"
       sodipodi:nodetypes="ccaaaaaaaaaaaaaaaacaaaaaaaaaaaaaaac" />
  </g>
  <g
     inkscape:groupmode="layer"
     id="layer5"
     inkscape:label="Cursive"
     style="display:inline"
     transform="translate(-0.32744214,3.0563645)">
    <path
       transform="matrix(0.26458333,0,0,0.26458333,0.32744214,-3.0563645)"
       d="M 176.26172 43.314453 C 173.09043 43.314453 172.1375 43.476467 170.11133 43.835938 C 168.30059 44.1572 166.51377 44.650879 164.78906 45.289062 C 162.93286 45.975886 161.12715 46.82548 159.42188 47.830078 C 157.83916 48.762484 156.35927 49.870333 154.94531 51.042969 C 153.65963 52.109211 152.44846 53.270281 151.32031 54.501953 C 149.59375 56.386955 147.95809 58.371898 146.5332 60.494141 C 143.97208 64.308629 141.74029 68.359232 139.82422 72.535156 C 137.22984 78.189443 135.25364 84.11778 133.38867 90.052734 C 131.4215 96.312879 129.89636 102.70733 128.38867 109.09375 C 127.18451 114.19437 126.16343 119.33657 125.16016 124.48047 C 123.39595 133.52579 121.8303 142.60986 120.25195 151.68945 C 119.447 156.32002 118.73295 160.96552 117.92578 165.5957 C 116.43604 174.14137 114.95817 182.6899 113.2832 191.20117 C 113.05029 192.3847 112.81171 193.56786 112.58008 194.75195 C 112.51485 194.76088 112.45 194.7724 112.38477 194.78125 C 108.92366 195.25105 105.45982 195.80685 101.96875 195.91797 C 100.401 195.96786 98.825511 195.8892 97.267578 195.70703 C 95.781517 195.53329 94.302056 195.25851 92.857422 194.86914 C 89.221448 193.88918 85.643122 192.64527 82.203125 191.11328 C 79.376371 189.8544 76.63458 188.37267 74.050781 186.66992 C 70.888273 184.58581 67.866362 182.25571 65.119141 179.64844 C 62.82242 177.46875 60.708824 175.07044 58.865234 172.49609 C 56.86868 169.70816 55.128281 166.71607 53.714844 163.5918 C 52.090161 160.0006 50.913522 156.20506 49.935547 152.38672 C 49.437556 150.44238 49.133596 148.45012 48.880859 146.45898 C 48.669259 144.79202 48.364755 143.46127 48.496094 141.43359 C 48.266351 142.12219 47.88455 143.50678 47.677734 144.56641 C 47.194601 147.04169 46.788844 149.54802 46.697266 152.06836 C 46.54133 156.36069 46.75196 160.69285 47.433594 164.93359 C 47.941215 168.09173 48.823709 171.19675 49.916016 174.20312 C 51.00379 177.19704 52.336527 180.11792 53.945312 182.86719 C 55.796068 186.02997 58.009243 188.98622 60.365234 191.79297 C 62.198309 193.97674 64.203565 196.02366 66.337891 197.91406 C 68.971447 200.24667 71.774692 202.40444 74.726562 204.31836 C 77.5776 206.16693 80.608087 207.74268 83.681641 209.19141 C 85.195719 209.90509 86.748852 210.54631 88.339844 211.06641 C 90.746654 211.85323 93.202065 212.53363 95.701172 212.94141 C 99.851441 213.61877 104.07782 213.99557 108.28125 213.875 C 108.35163 213.87298 108.42182 213.86747 108.49219 213.86523 C 108.4206 214.1531 108.35807 214.44292 108.28516 214.73047 C 106.11305 223.29673 103.79341 231.85233 100.76953 240.15625 C 98.972586 245.09088 96.87837 249.92847 94.474609 254.59766 C 93.228465 257.01822 91.843629 259.37669 90.277344 261.60352 C 88.484971 264.15182 86.582499 266.65723 84.355469 268.83594 C 82.79367 270.36385 81.037394 271.7001 79.195312 272.875 C 77.929659 273.68227 76.572843 274.35786 75.181641 274.92188 C 73.918591 275.43392 72.613672 275.86724 71.275391 276.125 C 69.284426 276.50862 67.240441 276.63621 65.212891 276.62109 C 61.328878 276.59532 57.397382 276.3913 53.613281 275.51562 C 49.108349 274.47317 44.448697 273.23865 40.628906 270.63281 C 37.402116 268.4315 34.649926 265.35805 32.785156 261.92578 C 31.152185 258.92015 30.473876 255.41661 30.126953 252.01367 C 29.852809 249.3245 30.196377 246.5922 30.603516 243.91992 C 30.799291 242.63496 31.131963 241.36723 31.544922 240.13477 C 32.208323 238.15486 33.032308 236.22237 34.001953 234.37305 C 34.495057 233.43259 35.488573 231.95591 35.701172 231.67773 C 34.274548 232.31655 31.258415 234.70004 29.414062 236.62695 C 27.00133 239.14767 24.973658 242.06462 23.304688 245.12891 C 22.199954 247.15727 21.399343 249.35543 20.771484 251.57812 C 20.073504 254.04907 19.560105 256.59635 19.419922 259.16016 C 19.251412 262.24213 19.46274 265.36845 20.041016 268.40039 C 20.495054 270.78093 21.32396 273.08791 22.257812 275.32422 C 22.96723 277.02308 23.825615 278.66781 24.814453 280.2207 C 25.939441 281.98741 27.219274 283.66356 28.630859 285.21094 C 30.097199 286.81829 31.715875 288.29685 33.431641 289.63477 C 35.348092 291.12912 37.388769 292.48018 39.529297 293.63086 C 41.951105 294.93276 44.478425 296.07902 47.105469 296.89062 C 50.265524 297.86691 53.565421 298.37015 56.845703 298.79297 C 59.489256 299.13377 62.158835 299.3159 64.824219 299.30078 C 68.334432 299.28071 71.88207 299.19007 75.326172 298.51172 C 78.909716 297.80593 82.437532 296.66983 85.748047 295.12695 C 89.116895 293.5569 92.238145 291.45936 95.205078 289.2207 C 96.576578 288.18587 97.807138 286.97318 99.029297 285.76562 C 100.8781 283.93891 102.67265 282.04978 104.32422 280.04297 C 105.98333 278.02701 107.52737 275.91036 108.94336 273.7168 C 111.52305 269.72048 113.87039 265.56472 115.98242 261.30273 C 118.07222 257.08561 119.87005 252.72368 121.53711 248.32227 C 123.76337 242.44442 125.68496 236.45048 127.46289 230.42188 C 129.30435 224.17783 130.88995 217.85721 132.36914 211.51758 C 132.43464 211.23686 132.49373 210.95469 132.55859 210.67383 C 132.64779 210.66009 132.73697 210.64447 132.82617 210.63086 C 134.5612 210.36607 136.28284 210.01135 138.01562 209.73242 C 141.36807 209.19305 144.72148 208.64739 148.0918 208.23438 C 153.57007 207.56306 159.06368 206.985 164.57227 206.64258 C 168.46302 206.40069 173.13756 206.31641 176.26172 206.31641 C 179.38588 206.31641 184.06042 206.40069 187.95117 206.64258 C 193.45976 206.985 198.95337 207.56306 204.43164 208.23438 C 207.80196 208.64739 211.15536 209.19305 214.50781 209.73242 C 216.2406 210.01135 217.96224 210.36607 219.69727 210.63086 C 219.78646 210.64435 219.87565 210.66022 219.96484 210.67383 C 220.0297 210.95469 220.0888 211.23687 220.1543 211.51758 C 221.63349 217.85721 223.21909 224.17782 225.06055 230.42188 C 226.83847 236.45049 228.76007 242.44441 230.98633 248.32227 C 232.65339 252.72367 234.45121 257.08561 236.54102 261.30273 C 238.65305 265.56472 241.00039 269.72048 243.58008 273.7168 C 244.99607 275.91036 246.54011 278.02701 248.19922 280.04297 C 249.85079 282.04978 251.64534 283.9389 253.49414 285.76562 C 254.7163 286.97318 255.94686 288.18588 257.31836 289.2207 C 260.28529 291.45937 263.40654 293.5569 266.77539 295.12695 C 270.08591 296.66983 273.61372 297.80593 277.19727 298.51172 C 280.64137 299.19008 284.18901 299.28075 287.69922 299.30078 C 290.3646 299.3159 293.03418 299.13377 295.67773 298.79297 C 298.95802 298.37015 302.25791 297.86691 305.41797 296.89062 C 308.04501 296.07902 310.57233 294.93276 312.99414 293.63086 C 315.13467 292.48018 317.17535 291.12912 319.0918 289.63477 C 320.80756 288.29685 322.42623 286.81829 323.89258 285.21094 C 325.30416 283.66356 326.584 281.98741 327.70898 280.2207 C 328.69782 278.66782 329.5562 277.02308 330.26562 275.32422 C 331.19947 273.08791 332.02838 270.78093 332.48242 268.40039 C 333.06069 265.36845 333.27201 262.24213 333.10352 259.16016 C 332.96333 256.59634 332.44993 254.04907 331.75195 251.57812 C 331.12409 249.35543 330.32348 247.15727 329.21875 245.12891 C 327.54978 242.06462 325.52211 239.14767 323.10938 236.62695 C 321.26502 234.70004 318.24889 232.31655 316.82227 231.67773 C 317.03486 231.95592 318.02838 233.43258 318.52148 234.37305 C 319.49113 236.22237 320.31511 238.15485 320.97852 240.13477 C 321.39147 241.36722 321.72414 242.63496 321.91992 243.91992 C 322.32706 246.5922 322.67061 249.3245 322.39648 252.01367 C 322.04956 255.41661 321.37125 258.92015 319.73828 261.92578 C 317.87351 265.35805 315.12132 268.4315 311.89453 270.63281 C 308.07474 273.23865 303.41509 274.47316 298.91016 275.51562 C 295.12606 276.3913 291.19456 276.59539 287.31055 276.62109 C 285.283 276.63621 283.23901 276.50862 281.24805 276.125 C 279.90977 275.86724 278.60485 275.43393 277.3418 274.92188 C 275.95059 274.35786 274.59378 273.68227 273.32812 272.875 C 271.48604 271.7001 269.72977 270.36385 268.16797 268.83594 C 265.94094 266.65723 264.03847 264.15182 262.24609 261.60352 C 260.67981 259.37669 259.29497 257.01822 258.04883 254.59766 C 255.64507 249.92847 253.55085 245.09088 251.75391 240.15625 C 248.73002 231.85233 246.41039 223.29673 244.23828 214.73047 C 244.16537 214.44292 244.10283 214.15312 244.03125 213.86523 C 244.10162 213.8675 244.17181 213.87298 244.24219 213.875 C 248.44562 213.99557 252.672 213.61877 256.82227 212.94141 C 259.32137 212.53363 261.77679 211.85323 264.18359 211.06641 C 265.77459 210.54631 267.32772 209.90509 268.8418 209.19141 C 271.91535 207.74268 274.94584 206.16693 277.79688 204.31836 C 280.74875 202.40444 283.55199 200.24667 286.18555 197.91406 C 288.31988 196.02366 290.32513 193.97674 292.1582 191.79297 C 294.51419 188.98622 296.72737 186.02996 298.57812 182.86719 C 300.18691 180.11792 301.51965 177.19704 302.60742 174.20312 C 303.69973 171.19675 304.58222 168.09173 305.08984 164.93359 C 305.77148 160.69285 305.98212 156.36069 305.82617 152.06836 C 305.73459 149.54802 305.32884 147.04168 304.8457 144.56641 C 304.63889 143.50677 304.2571 142.12219 304.02734 141.43359 C 304.15869 143.46127 303.85419 144.79202 303.64258 146.45898 C 303.38984 148.45013 303.08588 150.44238 302.58789 152.38672 C 301.60992 156.20506 300.43328 160.0006 298.80859 163.5918 C 297.39516 166.71606 295.65476 169.70817 293.6582 172.49609 C 291.81461 175.07044 289.70102 177.46875 287.4043 179.64844 C 284.65708 182.25571 281.63516 184.58581 278.47266 186.66992 C 275.88886 188.37267 273.14707 189.8544 270.32031 191.11328 C 266.88032 192.64527 263.30199 193.88918 259.66602 194.86914 C 258.22138 195.25851 256.74192 195.53329 255.25586 195.70703 C 253.69793 195.88924 252.12244 195.96786 250.55469 195.91797 C 247.06362 195.80685 243.59978 195.25105 240.13867 194.78125 C 240.07344 194.77218 240.00859 194.76102 239.94336 194.75195 C 239.71173 193.56786 239.47313 192.3847 239.24023 191.20117 C 237.56526 182.6899 236.08739 174.14137 234.59766 165.5957 C 233.79049 160.96552 233.07644 156.32002 232.27148 151.68945 C 230.69313 142.60986 229.12749 133.52579 227.36328 124.48047 C 226.36001 119.33657 225.33892 114.19437 224.13477 109.09375 C 222.62707 102.70733 221.10193 96.312879 219.13477 90.052734 C 217.2698 84.11778 215.2936 78.189443 212.69922 72.535156 C 210.78315 68.359232 208.55135 64.308629 205.99023 60.494141 C 204.56534 58.371898 202.92969 56.386955 201.20312 54.501953 C 200.07497 53.270281 198.86381 52.109211 197.57812 51.042969 C 196.16417 49.870333 194.68428 48.762484 193.10156 47.830078 C 191.39628 46.82548 189.59057 45.975887 187.73438 45.289062 C 186.00966 44.650879 184.22285 44.157201 182.41211 43.835938 C 180.38594 43.476466 179.43301 43.314453 176.26172 43.314453 z M 176.26172 65.992188 C 177.55685 65.992187 179.05586 66.336751 180.32031 66.90625 C 181.94199 67.636417 183.4086 68.750325 184.64844 70.025391 C 186.99761 72.441299 188.6881 75.444949 190.32812 78.388672 C 191.86835 81.153358 193.0919 84.093857 194.19922 87.058594 C 196.35446 92.829214 198.0512 98.77055 199.57031 104.74023 C 202.2735 115.36297 204.17733 126.17506 206.21484 136.94531 C 207.94057 146.06762 209.32993 155.25102 210.93945 164.39453 C 212.13567 171.19024 213.29356 177.99304 214.60547 184.76758 C 214.99683 186.78841 215.40606 188.80611 215.80273 190.82617 C 215.75708 190.81937 215.71167 190.81111 215.66602 190.80469 C 208.61284 189.78841 201.55397 188.77984 194.45703 188.13672 C 191.01544 187.82493 187.55826 187.70277 184.10547 187.56055 C 182.48511 187.49365 180.86376 187.45463 179.24219 187.42969 C 178.24882 187.41457 177.20573 187.41992 176.26172 187.41992 C 175.31771 187.41992 174.27462 187.41457 173.28125 187.42969 C 171.65968 187.45463 170.03833 187.49365 168.41797 187.56055 C 164.96518 187.70277 161.50801 187.82491 158.06641 188.13672 C 150.96947 188.77984 143.91059 189.78841 136.85742 190.80469 C 136.81176 190.81127 136.76636 190.81956 136.7207 190.82617 C 137.11738 188.80611 137.52661 186.78841 137.91797 184.76758 C 139.22988 177.99327 140.38776 171.19024 141.58398 164.39453 C 143.1935 155.25102 144.58286 146.06762 146.30859 136.94531 C 148.3461 126.17506 150.24994 115.36297 152.95312 104.74023 C 154.47223 98.77055 156.16898 92.829214 158.32422 87.058594 C 159.43154 84.093857 160.65508 81.153358 162.19531 78.388672 C 163.83533 75.444949 165.52583 72.441302 167.875 70.025391 C 169.11484 68.750329 170.58145 67.636417 172.20312 66.90625 C 173.46757 66.336751 174.96659 65.992188 176.26172 65.992188 z "
       style="display:inline;fill:url(#linearGradient994);fill-rule:nonzero;stroke:none;stroke-width:0.0999999;stroke-linecap:butt;stroke-linejoin:miter;stroke-miterlimit:4;stroke-dasharray:none;stroke-opacity:1;fill-opacity:1"
       id="path969" />
  </g>
  <g
     inkscape:groupmode="layer"
     id="layer3"
     inkscape:label="Grid"
     style="display:none"
     transform="translate(-67.755266,-87.022306)">
    <rect
       style="display:inline;fill:#ff0000;fill-opacity:0;stroke:#008000;stroke-width:0.762796"
       id="rect56"
       width="4.8355813"
       height="4.8355813"
       x="114.39062"
       y="98.48188" />
    <rect
       y="103.31745"
       x="114.39062"
       height="4.8355813"
       width="4.8355813"
       id="rect58"
       style="display:inline;fill:#ff0000;fill-opacity:0;stroke:#008000;stroke-width:0.762796" />
    <rect
       style="display:inline;fill:#ff0000;fill-opacity:0;stroke:#008000;stroke-width:0.762796"
       id="rect60"
       width="4.8355813"
       height="4.8355813"
       x="119.22619"
       y="103.31745" />
    <rect
       y="108.15304"
       x="119.22619"
       height="4.8355813"
       width="4.8355813"
       id="rect62"
       style="display:inline;fill:#ff0000;fill-opacity:0;stroke:#008000;stroke-width:0.762796" />
    <rect
       style="display:inline;fill:#ff0000;fill-opacity:0;stroke:#008000;stroke-width:0.762796"
       id="rect64"
       width="4.8355813"
       height="4.8355813"
       x="114.39061"
       y="108.15304" />
    <rect
       style="display:inline;fill:#ff0000;fill-opacity:0;stroke:#008000;stroke-width:0.762796"
       id="rect68"
       width="4.8355813"
       height="4.8355813"
       x="119.22619"
       y="112.98861" />
    <rect
       y="117.8242"
       x="119.22619"
       height="4.8355813"
       width="4.8355813"
       id="rect70"
       style="display:inline;fill:#ff0000;fill-opacity:0;stroke:#008000;stroke-width:0.762796" />
    <rect
       style="display:inline;fill:#ff0000;fill-opacity:0;stroke:#008000;stroke-width:0.762796"
       id="rect72"
       width="4.8355813"
       height="4.8355813"
       x="124.06178"
       y="117.8242" />
    <rect
       style="display:inline;fill:#ff0000;fill-opacity:0;stroke:#008000;stroke-width:0.762796"
       id="rect74"
       width="4.8355813"
       height="4.8355813"
       x="119.22619"
       y="122.65977" />
    <rect
       y="122.65977"
       x="124.06178"
       height="4.8355813"
       width="4.8355813"
       id="rect76"
       style="display:inline;fill:#ff0000;fill-opacity:0;stroke:#008000;stroke-width:0.762796" />
    <rect
       style="display:inline;fill:#ff0000;fill-opacity:0;stroke:#008000;stroke-width:0.762796"
       id="rect78"
       width="4.8355813"
       height="4.8355813"
       x="124.06178"
       y="127.49536" />
    <rect
       y="132.33093"
       x="124.06178"
       height="4.8355813"
       width="4.8355813"
       id="rect80"
       style="display:inline;fill:#ff0000;fill-opacity:0;stroke:#008000;stroke-width:0.762796" />
    <rect
       style="display:inline;fill:#ff0000;fill-opacity:0;stroke:#008000;stroke-width:0.762796"
       id="rect82"
       width="4.8355813"
       height="4.8355813"
       x="128.89735"
       y="132.33093" />
    <rect
       style="display:inline;fill:#ff0000;fill-opacity:0;stroke:#008000;stroke-width:0.762796"
       id="rect84"
       width="4.8355813"
       height="4.8355813"
       x="124.06178"
       y="137.16653" />
    <rect
       y="142.00211"
       x="114.39061"
       height="4.8355813"
       width="4.8355813"
       id="rect90"
       style="display:inline;fill:#ff0000;fill-opacity:0;stroke:#008000;stroke-width:0.762796" />
    <rect
       style="display:inline;fill:#ff0000;fill-opacity:0;stroke:#008000;stroke-width:0.762796"
       id="rect92"
       width="4.8355813"
       height="4.8355813"
       x="119.22619"
       y="142.00211" />
    <rect
       y="142.00211"
       x="124.06178"
       height="4.8355813"
       width="4.8355813"
       id="rect94"
       style="display:inline;fill:#ff0000;fill-opacity:0;stroke:#008000;stroke-width:0.762796" />
    <rect
       y="137.16653"
       x="128.89735"
       height="4.8355813"
       width="4.8355813"
       id="rect96"
       style="display:inline;fill:#ff0000;fill-opacity:0;stroke:#008000;stroke-width:0.762796" />
    <rect
       style="display:inline;fill:#ff0000;fill-opacity:0;stroke:#008000;stroke-width:0.762796"
       id="rect98"
       width="4.8355813"
       height="4.8355813"
       x="128.89735"
       y="142.00211" />
    <rect
       y="146.83771"
       x="128.89735"
       height="4.8355813"
       width="4.8355813"
       id="rect100"
       style="display:inline;fill:#ff0000;fill-opacity:0;stroke:#008000;stroke-width:0.762796" />
    <rect
       style="display:inline;fill:#ff0000;fill-opacity:0;stroke:#008000;stroke-width:0.762796"
       id="rect102"
       width="4.8355813"
       height="4.8355813"
       x="133.73294"
       y="146.83771" />
    <rect
       y="142.00211"
       x="133.73294"
       height="4.8355813"
       width="4.8355813"
       id="rect104"
       style="display:inline;fill:#ff0000;fill-opacity:0;stroke:#008000;stroke-width:0.762796" />
    <rect
       y="151.67329"
       x="133.73294"
       height="4.8355813"
       width="4.8355813"
       id="rect106"
       style="display:inline;fill:#ff0000;fill-opacity:0;stroke:#008000;stroke-width:0.762796" />
    <rect
       style="display:inline;fill:#ff0000;fill-opacity:0;stroke:#008000;stroke-width:0.762796"
       id="rect108"
       width="4.8355813"
       height="4.8355813"
       x="133.73294"
       y="156.50888" />
    <rect
       y="161.34447"
       x="133.73294"
       height="4.8355813"
       width="4.8355813"
       id="rect110"
       style="display:inline;fill:#ff0000;fill-opacity:0;stroke:#008000;stroke-width:0.762796" />
    <rect
       style="display:inline;fill:#ff0000;fill-opacity:0;stroke:#008000;stroke-width:0.762796"
       id="rect112"
       width="4.8355813"
       height="4.8355813"
       x="138.56853"
       y="161.34447" />
    <rect
       y="156.50888"
       x="138.56853"
       height="4.8355813"
       width="4.8355813"
       id="rect114"
       style="display:inline;fill:#ff0000;fill-opacity:0;stroke:#008000;stroke-width:0.762796" />
    <rect
       y="127.49536"
       x="128.89735"
       height="4.8355813"
       width="4.8355813"
       id="rect119"
       style="display:inline;fill:#ff0000;fill-opacity:0;stroke:#008000;stroke-width:0.762796" />
    <rect
       y="112.98861"
       x="124.06178"
       height="4.8355813"
       width="4.8355813"
       id="rect946"
       style="display:inline;fill:#ff0000;fill-opacity:0;stroke:#008000;stroke-width:0.762796" />
    <rect
       y="137.08913"
       x="114.39061"
       height="4.8355813"
       width="4.8355813"
       id="rect960"
       style="display:inline;fill:#ff0000;fill-opacity:0;stroke:#008000;stroke-width:0.762796" />
    <rect
       y="137.08913"
       x="119.22619"
       height="4.8355813"
       width="4.8355813"
       id="rect989"
       style="display:inline;fill:#ff0000;fill-opacity:0;stroke:#008000;stroke-width:0.762796" />
    <rect
       style="display:inline;fill:#ff0000;fill-opacity:0;stroke:#008000;stroke-width:0.762796"
       id="rect991"
       width="4.8355813"
       height="4.8355813"
       x="128.89735"
       y="151.67329" />
    <rect
       y="161.34447"
       x="143.4041"
       height="4.8355813"
       width="4.8355813"
       id="rect993"
       style="display:inline;fill:#ff0000;fill-opacity:0;stroke:#008000;stroke-width:0.762796" />
    <rect
       style="display:inline;fill:#ff0000;fill-opacity:0;stroke:#008000;stroke-width:0.762796"
       id="rect995"
       width="4.8355813"
       height="4.8355813"
       x="148.23969"
       y="161.34447" />
    <rect
       style="display:inline;fill:#ff0000;fill-opacity:0;stroke:#008000;stroke-width:0.762796"
       id="rect1001"
       width="4.8355813"
       height="4.8355813"
       x="133.73294"
       y="137.16653" />
    <rect
       y="156.50888"
       x="148.23969"
       height="4.8355813"
       width="4.8355813"
       id="rect1003"
       style="display:inline;fill:#ff0000;fill-opacity:0;stroke:#008000;stroke-width:0.762796" />
    <rect
       y="137.16653"
       x="138.56853"
       height="4.8355813"
       width="4.8355813"
       id="rect1007"
       style="display:inline;fill:#ff0000;fill-opacity:0;stroke:#008000;stroke-width:0.762796" />
  </g>
  <g
     inkscape:groupmode="layer"
     id="layer4"
     inkscape:label="Calque 4"
     transform="translate(-67.755266,-87.022306)"
     style="display:inline">
    <path
       transform="matrix(0.26458333,0,0,0.26458333,67.755266,87.022306)"
       d="M 157.98633 43.3125 L 157.98633 61.587891 L 139.71094 61.587891 L 139.71094 98.140625 L 121.43359 98.140625 L 121.43359 189.52148 L 103.1582 189.52148 L 66.605469 189.52148 L 66.605469 207.79688 L 103.1582 207.79688 L 103.1582 244.34961 L 84.880859 244.34961 L 84.880859 280.90234 L 48.328125 280.90234 L 48.328125 262.62695 L 30.052734 262.62695 L 30.052734 299.17969 L 103.1582 299.17969 L 103.1582 262.62695 L 121.43359 262.62695 L 121.43359 226.07422 L 139.71094 226.07422 L 139.71094 207.79688 L 176.26172 207.50586 L 212.81445 207.79688 L 212.81445 226.07422 L 231.0918 226.07422 L 231.0918 262.62695 L 249.36719 262.62695 L 249.36719 299.17969 L 322.47266 299.17969 L 322.47266 262.62695 L 304.19531 262.62695 L 304.19531 280.90234 L 267.64258 280.90234 L 267.64258 244.34961 L 249.36719 244.34961 L 249.36719 207.79688 L 285.91992 207.79688 L 285.91992 189.52148 L 249.36719 189.52148 L 231.0918 189.52148 L 231.0918 98.140625 L 212.81445 98.140625 L 212.81445 61.587891 L 194.53906 61.587891 L 194.53906 43.3125 L 176.26562 43.314453 L 176.26172 79.863281 L 194.53906 79.863281 L 194.53906 116.41602 L 212.81445 116.41602 L 212.81445 189.22852 L 176.26172 189.22852 L 139.71094 189.22852 L 139.71094 116.41602 L 157.98633 116.41602 L 157.98633 79.863281 L 176.26172 79.863281 L 176.25977 43.314453 L 157.98633 43.3125 z "
       style="fill:url(#linearGradient986);fill-rule:nonzero;stroke:none;stroke-width:0.264583;stroke-linecap:butt;stroke-linejoin:miter;stroke-opacity:1;fill-opacity:1"
       id="path997" />
  </g>
</svg>
