<?xml version="1.0" encoding="UTF-8" standalone="no"?>
<svg
   xmlns:dc="http://purl.org/dc/elements/1.1/"
   xmlns:cc="http://creativecommons.org/ns#"
   xmlns:rdf="http://www.w3.org/1999/02/22-rdf-syntax-ns#"
   xmlns:svg="http://www.w3.org/2000/svg"
   xmlns="http://www.w3.org/2000/svg"
   xmlns:sodipodi="http://sodipodi.sourceforge.net/DTD/sodipodi-0.dtd"
   xmlns:inkscape="http://www.inkscape.org/namespaces/inkscape"
   width="314.28571"
   height="314.28571"
   viewBox="0 0 83.154757 83.154762"
   version="1.1"
   id="svg8"
   inkscape:version="1.0 (4035a4fb49, 2020-05-01)"
   sodipodi:docname="aether_logo.svg"
   inkscape:export-filename="aether_logo_BW.png"
   inkscape:export-xdpi="156.39273"
   inkscape:export-ydpi="156.39273">
  <defs
     id="defs2" />
  <sodipodi:namedview
     id="base"
     pagecolor="#ffffff"
     bordercolor="#666666"
     borderopacity="1.0"
     inkscape:pageopacity="1"
     inkscape:pageshadow="2"
     inkscape:zoom="2.8"
     inkscape:cx="201.64137"
     inkscape:cy="109.53696"
     inkscape:document-units="mm"
     inkscape:current-layer="layer4"
     inkscape:document-rotation="0"
     showgrid="false"
     inkscape:snap-midpoints="true"
     inkscape:snap-text-baseline="true"
     inkscape:window-width="1920"
     inkscape:window-height="1013"
     inkscape:window-x="-9"
     inkscape:window-y="-9"
     inkscape:window-maximized="1"
     units="px"
     fit-margin-left="0"
     fit-margin-top="0"
     fit-margin-bottom="0"
     fit-margin-right="0"
     inkscape:snap-global="false">
    <sodipodi:guide
       position="46.963537,90.379889"
       orientation="109.60159,0"
       id="guide14" />
    <sodipodi:guide
       position="46.948797,75.3051"
       orientation="0,-40.503874"
       id="guide997" />
    <sodipodi:guide
       position="46.948787,31.70076"
       orientation="0,-26.208227"
       id="guide1001" />
    <sodipodi:guide
       position="46.948787,26.85582"
       orientation="0,-23.430312"
       id="guide1005" />
    <sodipodi:guide
       position="66.328497,7.4761099"
       orientation="0,-10.401789"
       id="guide1009" />
    <sodipodi:guide
       position="46.963537,36.54526"
       orientation="0,-9.5333291"
       id="guide1019" />
  </sodipodi:namedview>
  <metadata
     id="metadata5">
    <rdf:RDF>
      <cc:Work
         rdf:about="">
        <dc:format>image/svg+xml</dc:format>
        <dc:type
           rdf:resource="http://purl.org/dc/dcmitype/StillImage" />
        <dc:title />
      </cc:Work>
    </rdf:RDF>
  </metadata>
  <g
     inkscape:label="Calque 1"
     inkscape:groupmode="layer"
     id="layer1"
     style="display:none"
     transform="translate(-67.427823,-90.078671)">
    <rect
       style="fill:#ff0000;fill-opacity:0;stroke:#008000;stroke-width:0.79375"
       id="rect10"
       width="96.217026"
       height="96.217026"
       x="66.282845"
       y="82.853546" />
    <text
       xml:space="preserve"
       style="font-style:normal;font-weight:normal;font-size:10.5833px;line-height:1.25;font-family:sans-serif;fill:#000000;fill-opacity:1;stroke:none;stroke-width:0.264583"
       x="91.406174"
       y="127.08666"
       id="text18"><tspan
         sodipodi:role="line"
         id="tspan16"
         x="91.406174"
         y="127.08666"
         style="stroke-width:0.264583" /></text>
    <text
       xml:space="preserve"
       style="font-style:normal;font-weight:normal;font-size:93.8467px;line-height:1.25;font-family:sans-serif;text-align:center;text-anchor:middle;fill:#000000;fill-opacity:1;stroke:none;stroke-width:2.34617"
       x="114.39136"
       y="166.10803"
       id="text22"><tspan
         sodipodi:role="line"
         id="tspan20"
         x="114.39136"
         y="166.10803"
         style="text-align:center;text-anchor:middle;stroke-width:2.34617">A</tspan></text>
  </g>
  <g
     inkscape:groupmode="layer"
     id="layer3"
     inkscape:label="Calque 3"
     style="display:none"
     transform="translate(-67.427823,-90.078671)">
    <rect
       style="display:inline;fill:#ff0000;fill-opacity:0;stroke:#008000;stroke-width:0.76427"
       id="rect56"
       width="4.8449254"
       height="4.8449254"
       x="114.37662"
       y="97.928337" />
    <rect
       y="102.77325"
       x="114.37662"
       height="4.8449254"
       width="4.8449254"
       id="rect58"
       style="display:inline;fill:#ff0000;fill-opacity:0;stroke:#008000;stroke-width:0.76427" />
    <rect
       style="display:inline;fill:#ff0000;fill-opacity:0;stroke:#008000;stroke-width:0.76427"
       id="rect60"
       width="4.8449254"
       height="4.8449254"
       x="119.22153"
       y="102.77325" />
    <rect
       y="107.61818"
       x="119.22153"
       height="4.8449254"
       width="4.8449254"
       id="rect62"
       style="display:inline;fill:#ff0000;fill-opacity:0;stroke:#008000;stroke-width:0.76427" />
    <rect
       style="display:inline;fill:#ff0000;fill-opacity:0;stroke:#008000;stroke-width:0.76427"
       id="rect64"
       width="4.8449254"
       height="4.8449254"
       x="114.37661"
       y="107.61818" />
    <rect
       style="display:inline;fill:#ff0000;fill-opacity:0;stroke:#008000;stroke-width:0.76427"
       id="rect68"
       width="4.8449254"
       height="4.8449254"
       x="119.22153"
       y="112.4631" />
    <rect
       y="117.30803"
       x="119.22153"
       height="4.8449254"
       width="4.8449254"
       id="rect70"
       style="display:inline;fill:#ff0000;fill-opacity:0;stroke:#008000;stroke-width:0.76427" />
    <rect
       style="display:inline;fill:#ff0000;fill-opacity:0;stroke:#008000;stroke-width:0.76427"
       id="rect72"
       width="4.8449254"
       height="4.8449254"
       x="124.06646"
       y="117.30803" />
    <rect
       style="display:inline;fill:#ff0000;fill-opacity:0;stroke:#008000;stroke-width:0.76427"
       id="rect74"
       width="4.8449254"
       height="4.8449254"
       x="119.22153"
       y="122.15295" />
    <rect
       y="122.15295"
       x="124.06646"
       height="4.8449254"
       width="4.8449254"
       id="rect76"
       style="display:inline;fill:#ff0000;fill-opacity:0;stroke:#008000;stroke-width:0.76427" />
    <rect
       style="display:inline;fill:#ff0000;fill-opacity:0;stroke:#008000;stroke-width:0.76427"
       id="rect78"
       width="4.8449254"
       height="4.8449254"
       x="124.06646"
       y="126.99788" />
    <rect
       y="131.8428"
       x="124.06646"
       height="4.8449254"
       width="4.8449254"
       id="rect80"
       style="display:inline;fill:#ff0000;fill-opacity:0;stroke:#008000;stroke-width:0.76427" />
    <rect
       style="display:inline;fill:#ff0000;fill-opacity:0;stroke:#008000;stroke-width:0.76427"
       id="rect82"
       width="4.8449254"
       height="4.8449254"
       x="128.91138"
       y="131.8428" />
    <rect
       style="display:inline;fill:#ff0000;fill-opacity:0;stroke:#008000;stroke-width:0.76427"
       id="rect84"
       width="4.8449254"
       height="4.8449254"
       x="124.06646"
       y="136.68774" />
    <rect
       y="141.53267"
       x="114.37661"
       height="4.8449254"
       width="4.8449254"
       id="rect90"
       style="display:inline;fill:#ff0000;fill-opacity:0;stroke:#008000;stroke-width:0.76427" />
    <rect
       style="display:inline;fill:#ff0000;fill-opacity:0;stroke:#008000;stroke-width:0.76427"
       id="rect92"
       width="4.8449254"
       height="4.8449254"
       x="119.22153"
       y="141.53267" />
    <rect
       y="141.53267"
       x="124.06646"
       height="4.8449254"
       width="4.8449254"
       id="rect94"
       style="display:inline;fill:#ff0000;fill-opacity:0;stroke:#008000;stroke-width:0.76427" />
    <rect
       y="136.68774"
       x="128.91138"
       height="4.8449254"
       width="4.8449254"
       id="rect96"
       style="display:inline;fill:#ff0000;fill-opacity:0;stroke:#008000;stroke-width:0.76427" />
    <rect
       style="display:inline;fill:#ff0000;fill-opacity:0;stroke:#008000;stroke-width:0.76427"
       id="rect98"
       width="4.8449254"
       height="4.8449254"
       x="128.91138"
       y="141.53267" />
    <rect
       y="146.37761"
       x="128.91138"
       height="4.8449254"
       width="4.8449254"
       id="rect100"
       style="display:inline;fill:#ff0000;fill-opacity:0;stroke:#008000;stroke-width:0.76427" />
    <rect
       style="display:inline;fill:#ff0000;fill-opacity:0;stroke:#008000;stroke-width:0.76427"
       id="rect102"
       width="4.8449254"
       height="4.8449254"
       x="133.75632"
       y="146.37761" />
    <rect
       y="141.53267"
       x="133.75632"
       height="4.8449254"
       width="4.8449254"
       id="rect104"
       style="display:inline;fill:#ff0000;fill-opacity:0;stroke:#008000;stroke-width:0.76427" />
    <rect
       y="151.22253"
       x="133.75632"
       height="4.8449254"
       width="4.8449254"
       id="rect106"
       style="display:inline;fill:#ff0000;fill-opacity:0;stroke:#008000;stroke-width:0.76427" />
    <rect
       style="display:inline;fill:#ff0000;fill-opacity:0;stroke:#008000;stroke-width:0.76427"
       id="rect108"
       width="4.8449254"
       height="4.8449254"
       x="133.75632"
       y="156.06747" />
    <rect
       y="160.9124"
       x="133.75632"
       height="4.8449254"
       width="4.8449254"
       id="rect110"
       style="display:inline;fill:#ff0000;fill-opacity:0;stroke:#008000;stroke-width:0.76427" />
    <rect
       style="display:inline;fill:#ff0000;fill-opacity:0;stroke:#008000;stroke-width:0.76427"
       id="rect112"
       width="4.8449254"
       height="4.8449254"
       x="138.60124"
       y="160.9124" />
    <rect
       y="156.06747"
       x="138.60124"
       height="4.8449254"
       width="4.8449254"
       id="rect114"
       style="display:inline;fill:#ff0000;fill-opacity:0;stroke:#008000;stroke-width:0.76427" />
    <rect
       y="126.99788"
       x="128.91138"
       height="4.8449254"
       width="4.8449254"
       id="rect119"
       style="display:inline;fill:#ff0000;fill-opacity:0;stroke:#008000;stroke-width:0.76427" />
    <rect
       y="112.4631"
       x="124.06646"
       height="4.8449254"
       width="4.8449254"
       id="rect946"
       style="display:inline;fill:#ff0000;fill-opacity:0;stroke:#008000;stroke-width:0.76427" />
    <rect
       y="136.68774"
       x="114.3766"
       height="4.8449254"
       width="4.8449254"
       id="rect960"
       style="display:inline;fill:#ff0000;fill-opacity:0;stroke:#008000;stroke-width:0.76427" />
  </g>
  <g
     inkscape:groupmode="layer"
     id="layer2"
     inkscape:label="Calque 2"
     style="display:none"
     sodipodi:insensitive="true"
     transform="translate(-67.427823,-90.078671)">
    <path
       sodipodi:nodetypes="cccccccccccccccccccccccccccccc"
       id="path962"
       d="m 114.37662,97.928336 v 9.689834 l 4.84491,10e-6 v 4.84492 9.68985 h 4.84492 l 1e-5,9.68985 h 4.84493 l -1e-5,4.84493 h -14.52002 v 4.84494 h 14.52002 v 9.68986 h 4.84493 l 10e-6,9.68987 v 4.84492 h 4.84492 l 4.84494,1e-5 v -9.68986 h -4.84493 v -14.5348 h -4.84494 l 10e-6,-14.53479 h -4.84494 l 1e-5,-9.68986 h -4.84493 v -14.53477 h -4.84493 l 1e-5,-4.844914 z"
       style="display:inline;fill:none;stroke:#ff0000;stroke-width:0.79375;stroke-linecap:butt;stroke-linejoin:miter;stroke-miterlimit:4;stroke-dasharray:none;stroke-opacity:1" />
    <path
       style="fill:none;stroke:#ff0000;stroke-width:0.79375;stroke-linecap:butt;stroke-linejoin:miter;stroke-miterlimit:4;stroke-dasharray:none;stroke-opacity:1"
       d="m 114.39136,97.928328 c -3.15101,1e-6 -4.56175,0.61031 -6.32367,1.935023 -2.91358,2.190599 -4.58181,5.789839 -5.97809,9.157049 -1.77669,4.2846 -2.02365,9.0554 -2.870874,13.61573 -0.801794,4.31579 -0.997048,7.03801 -1.555635,10.54781 -0.617704,3.88125 -1.122038,7.78785 -1.985711,11.62188 -0.726248,3.22397 -1.214452,6.58353 -2.681771,9.54468 -0.916167,1.84888 -1.891448,4.00069 -3.727587,4.94214 -3.449436,1.76865 -8.802076,2.92263 -11.626225,0.26727 -2.732761,-2.56943 -4.393565,-4.78466 -0.434314,-11.2446 -3.131755,2.97241 -4.202036,6.12238 -3.541319,9.40712 0.62993,3.13169 3.541574,5.98444 6.581512,6.96581 4.704568,1.51876 10.461638,-0.0343 14.566189,-2.78971 2.521878,-1.69295 3.664341,-4.33499 4.97552,-7.63398 0.652065,-1.64062 1.144935,-4.64606 1.622345,-6.9898 0.63408,-3.11289 1.14747,-6.24973 1.64834,-9.38681 0.77927,-4.88074 1.21206,-9.81648 2.11049,-14.67669 0.75135,-4.06458 0.97643,-8.35537 2.73951,-12.09394 1.00902,-2.13962 2.34364,-4.34849 4.34313,-5.61266 0.61666,-0.38988 1.11936,-0.45604 2.13816,-0.46773 z"
       id="path1013"
       sodipodi:nodetypes="caasaaaaacaaasaaaaacc" />
    <path
       style="fill:none;stroke:#ff0000;stroke-width:0.79375;stroke-linecap:butt;stroke-linejoin:miter;stroke-miterlimit:4;stroke-dasharray:none;stroke-opacity:1"
       d="m 114.39136,136.68773 v 4.84494 c -1.77311,0 -4.5276,0.10082 -6.78051,0.30911 -3.41821,0.31601 -6.7667,1.46147 -10.199292,1.42503 -2.62829,-0.0279 -5.367861,-0.22305 -7.784531,-1.25668 -2.442978,-1.04488 -4.931268,-2.56904 -6.354029,-4.81307 -2.32638,-3.66925 -3.889561,-8.26468 -2.686365,-12.75391 0.07681,4.5786 1.668329,7.09287 3.814153,9.9064 1.305132,1.71125 3.21522,2.99198 5.197173,3.83079 1.777292,0.75218 3.781031,0.99117 5.710583,0.95403 2.375071,-0.0457 4.640797,-1.02302 6.978718,-1.44395 1.8486,-0.33283 3.69864,-0.69058 5.56979,-0.85457 2.17034,-0.19022 4.82498,-0.14768 6.53431,-0.14768 z"
       id="path1015"
       sodipodi:nodetypes="ccaaaacaaaaacc" />
  </g>
  <g
     inkscape:groupmode="layer"
     id="layer4"
     inkscape:label="Calque 4"
     transform="translate(-67.427823,-90.078671)">
    <path
       id="path1022"
       style="display:inline;fill:#000000;stroke:none;stroke-width:5;stroke-linecap:butt;stroke-linejoin:miter;stroke-miterlimit:4;stroke-dasharray:none;stroke-opacity:1"
       d="m 432.28906,370.12305 c -11.86828,0.008 -17.20055,2.31464 -23.84375,7.3125 -11.00968,8.28289 -17.31828,21.8827 -22.5957,34.60937 -6.71509,16.19365 -7.76115,34.20439 -10.84961,51.46094 -2.3665,13.22267 -3.87333,26.58498 -5.87891,39.86719 -1.10682,7.33004 -2.22333,14.65903 -3.39648,21.97851 -1.82091,0.28548 -3.66265,0.57717 -5.50391,0.50977 -7.28883,-0.2668 -14.86504,-0.7629 -21.58203,-3.60547 -7.49133,-3.17027 -14.71147,-8.01049 -19.64453,-14.47852 -8.11008,-10.63361 -14.12376,-20.13646 -14.41406,-37.4414 -4.54751,16.96717 1.35932,34.33687 10.15234,48.20508 5.37737,8.4811 14.84003,14.10858 24.01563,18.18945 7.48239,3.32781 15.86996,4.27374 24.13086,4.60937 -0.40005,1.99026 -0.77825,3.98607 -1.26368,5.95704 -2.987,12.12803 -4.59101,24.8824 -10.13671,36.07421 -3.46265,6.98801 -7.14816,15.1213 -14.0879,18.67969 -13.03706,6.68482 -33.26765,11.04585 -43.9414,1.00977 -10.32811,-9.71109 -16.60472,-18.08253 -1.64063,-42.49805 -11.83655,11.23431 -15.8821,23.13984 -13.38476,35.55469 2.3809,11.83598 13.62663,21.94059 24.875,26.32617 13.12064,5.11555 29.05772,2.23931 42.14373,-2.96419 8.88509,-3.53305 16.15065,-10.76795 22.18321,-18.18654 4.32903,-5.32366 7.14717,-11.81133 9.53048,-18.24575 3.14,-8.47732 4.28023,-17.56967 6.13281,-26.41797 1.19302,-5.6981 2.21294,-11.43118 3.20703,-17.16797 6.72416,-1.25546 13.43735,-2.73794 20.22266,-3.36524 8.51494,-0.78723 18.92544,-1.16992 25.62695,-1.16992 h 54.87891 v 36.62305 h 18.31055 v 36.62305 18.3125 h 18.3125 18.31054 v -36.62305 h -18.31054 v -54.93555 h -18.3125 v -54.93359 h -18.31055 v -36.62305 h -18.3125 v -54.93555 h -18.31055 v -18.31054 z m 0,26.86914 v 9.7539 h 18.3125 v 18.31055 36.62305 h 18.31055 v 36.62304 h 18.3125 v 18.3125 H 432.3457 v 0.002 c -6.46046,0 -16.4944,-0.16035 -24.69726,0.55859 -6.02003,0.5276 -11.98138,1.58497 -17.93164,2.66406 2.81679,-18.01987 4.46352,-36.22515 7.77734,-54.16015 2.83849,-15.36242 3.6918,-31.57901 10.35547,-45.70899 3.81356,-8.08647 8.86008,-16.43047 16.41406,-21.21289 2.31429,-1.46518 4.21749,-1.71939 8.02539,-1.76562 z"
       transform="scale(0.26458333)"
       sodipodi:nodetypes="caaaacaaacaacaaaacaaaaaacssccccccccccccccccccccccccccccccscaaacc" />
  </g>
</svg>
