<?xml version="1.0" encoding="UTF-8" standalone="no"?>
<!-- Created with Inkscape (http://www.inkscape.org/) -->

<svg
   xmlns:dc="http://purl.org/dc/elements/1.1/"
   xmlns:cc="http://creativecommons.org/ns#"
   xmlns:rdf="http://www.w3.org/1999/02/22-rdf-syntax-ns#"
   xmlns:svg="http://www.w3.org/2000/svg"
   xmlns="http://www.w3.org/2000/svg"
   xmlns:sodipodi="http://sodipodi.sourceforge.net/DTD/sodipodi-0.dtd"
   xmlns:inkscape="http://www.inkscape.org/namespaces/inkscape"
   width="32"
   height="32"
   viewBox="0 0 32 32.000001"
   id="svg2"
   version="1.1"
   inkscape:version="0.91 r13725"
   sodipodi:docname="target.svg"
   inkscape:export-filename="C:\Aether\resources\target_2_32.png"
   inkscape:export-xdpi="90"
   inkscape:export-ydpi="90">
  <defs
     id="defs4" />
  <sodipodi:namedview
     id="base"
     pagecolor="#ffffff"
     bordercolor="#666666"
     borderopacity="1.0"
     inkscape:pageopacity="0.0"
     inkscape:pageshadow="2"
     inkscape:zoom="15.999999"
     inkscape:cx="12.997954"
     inkscape:cy="18.382761"
     inkscape:document-units="px"
     inkscape:current-layer="layer1"
     showgrid="false"
     units="px"
     inkscape:window-width="1920"
     inkscape:window-height="1028"
     inkscape:window-x="-8"
     inkscape:window-y="-8"
     inkscape:window-maximized="1"
     inkscape:snap-smooth-nodes="true"
     inkscape:object-nodes="true"
     inkscape:object-paths="true"
     inkscape:snap-intersection-paths="true"
     inkscape:snap-midpoints="true"
     inkscape:snap-center="true"
     inkscape:snap-global="true">
    <sodipodi:guide
       position="16,16"
       orientation="1,0"
       id="guide4138"
       inkscape:label=""
       inkscape:color="rgb(0,0,255)" />
    <sodipodi:guide
       position="16,16"
       orientation="0,1"
       id="guide4142"
       inkscape:label=""
       inkscape:color="rgb(0,0,255)" />
  </sodipodi:namedview>
  <metadata
     id="metadata7">
    <rdf:RDF>
      <cc:Work
         rdf:about="">
        <dc:format>image/svg+xml</dc:format>
        <dc:type
           rdf:resource="http://purl.org/dc/dcmitype/StillImage" />
        <dc:title />
      </cc:Work>
    </rdf:RDF>
  </metadata>
  <g
     inkscape:label="Calque 1"
     inkscape:groupmode="layer"
     id="layer1"
     transform="translate(0,-1020.3622)">
    <path
       style="opacity:1;fill:#ff959d;fill-opacity:1;stroke:#a1000b;stroke-width:1.5;stroke-linecap:butt;stroke-linejoin:miter;stroke-miterlimit:4;stroke-dasharray:none;stroke-dashoffset:0;stroke-opacity:1"
       d="m 16,1022.9872 c -0.812027,0 -1.465753,0.6537 -1.465753,1.4658 l 0,2.1375 a 9.8938344,9.8938344 0 0 0 -8.3116622,8.3059 l -2.1318314,0 c -0.8120268,0 -1.4657534,0.6538 -1.4657534,1.4658 0,0.8121 0.6537266,1.4658 1.4657534,1.4658 l 2.137557,0 a 9.8938344,9.8938344 0 0 0 8.3059366,8.3059 l 0,2.1375 c 0,0.8121 0.653726,1.4658 1.465753,1.4658 0.812026,0 1.465753,-0.6537 1.465753,-1.4658 l 0,-2.1375 a 9.8938344,9.8938344 0 0 0 8.311661,-8.3059 l 2.131832,0 c 0.812027,0 1.465753,-0.6537 1.465753,-1.4658 0,-0.812 -0.653726,-1.4658 -1.465753,-1.4658 l -2.137557,0 a 9.8938344,9.8938344 0 0 0 -8.305936,-8.3059 l 0,-2.1375 c 0,-0.8121 -0.653727,-1.4658 -1.465753,-1.4658 z m 1.465753,6.5386 a 6.9959889,6.9959889 0 0 1 5.366795,5.3706 l -5.366795,0 0,-5.3706 z m -2.931506,0 0,5.3668 -5.3725213,0 a 6.9959889,6.9959889 0 0 1 5.3725213,-5.3668 z m -5.3667957,8.2984 5.3667957,0 0,5.3706 a 6.9959889,6.9959889 0 0 1 -5.3667957,-5.3706 z m 8.2983017,0 5.372521,0 a 6.9959889,6.9959889 0 0 1 -5.372521,5.3667 l 0,-5.3667 z"
       id="rect4143"
       inkscape:connector-curvature="0" />
  </g>
</svg>
